<svg width="262" height="74" viewBox="0 0 262 74" fill="none" xmlns="http://www.w3.org/2000/svg">
<path d="M86.566 41.0938V51.9682C86.566 52.7256 86.7419 53.2802 87.0935 53.6318C87.4722 53.9564 88.0944 54.1187 88.96 54.1187H91.5975V58.9067H88.0268C83.2388 58.9067 80.8448 56.5804 80.8448 51.9276V41.0938H78.1668V36.4275H80.8448V30.8685H86.566V36.4275H91.5975V41.0938H86.566ZM108.343 36.1029C110.047 36.1029 111.562 36.4816 112.888 37.239C114.213 37.9694 115.241 39.0649 115.971 40.5257C116.729 41.9594 117.108 43.6906 117.108 45.7194V58.9067H111.427V46.4904C111.427 44.705 110.981 43.339 110.088 42.3922C109.195 41.4184 107.978 40.9314 106.436 40.9314C104.867 40.9314 103.623 41.4184 102.703 42.3922C101.81 43.339 101.364 44.705 101.364 46.4904V58.9067H95.6833V28.8803H101.364V39.2272C102.094 38.2534 103.068 37.496 104.286 36.955C105.503 36.3869 106.855 36.1029 108.343 36.1029ZM128.19 39.917C128.921 38.7268 129.867 37.7936 131.031 37.1173C132.221 36.441 133.573 36.1029 135.088 36.1029V42.0676H133.587C131.802 42.0676 130.449 42.4869 129.529 43.3255C128.637 44.164 128.19 45.6248 128.19 47.7077V58.9067H122.51V36.4275H128.19V39.917ZM159.811 47.1802C159.811 47.9917 159.757 48.7221 159.649 49.3713H143.216C143.351 50.9944 143.919 52.2658 144.92 53.1855C145.921 54.1052 147.151 54.5651 148.612 54.5651C150.722 54.5651 152.224 53.6589 153.116 51.8465H159.243C158.594 54.0105 157.35 55.7959 155.51 57.2025C153.671 58.5821 151.412 59.2719 148.734 59.2719C146.57 59.2719 144.622 58.7985 142.891 57.8518C141.187 56.8779 139.848 55.5119 138.874 53.7536C137.927 51.9952 137.454 49.9664 137.454 47.6671C137.454 45.3407 137.927 43.2984 138.874 41.5401C139.821 39.7818 141.146 38.4292 142.85 37.4825C144.555 36.5357 146.516 36.0623 148.734 36.0623C150.871 36.0623 152.778 36.5222 154.455 37.4419C156.159 38.3616 157.471 39.6736 158.391 41.3778C159.338 43.0549 159.811 44.9891 159.811 47.1802ZM153.928 45.5571C153.901 44.0964 153.373 42.9332 152.345 42.0676C151.317 41.1749 150.059 40.7286 148.572 40.7286C147.165 40.7286 145.975 41.1614 145.001 42.027C144.054 42.8656 143.473 44.0423 143.256 45.5571H153.928ZM162.497 47.586C162.497 45.3137 162.943 43.2984 163.836 41.5401C164.756 39.7818 165.986 38.4292 167.528 37.4825C169.097 36.5357 170.842 36.0623 172.763 36.0623C174.44 36.0623 175.901 36.4004 177.145 37.0767C178.416 37.753 179.431 38.6051 180.188 39.633V36.4275H185.909V58.9067H180.188V55.6201C179.458 56.675 178.443 57.5542 177.145 58.2575C175.874 58.9338 174.399 59.2719 172.722 59.2719C170.829 59.2719 169.097 58.785 167.528 57.8112C165.986 56.8373 164.756 55.4713 163.836 53.713C162.943 51.9276 162.497 49.8853 162.497 47.586ZM180.188 47.6671C180.188 46.2875 179.918 45.1108 179.377 44.137C178.836 43.1361 178.105 42.3787 177.186 41.8647C176.266 41.3237 175.278 41.0532 174.223 41.0532C173.168 41.0532 172.195 41.3102 171.302 41.8241C170.409 42.3381 169.679 43.0955 169.111 44.0964C168.57 45.0702 168.299 46.2334 168.299 47.586C168.299 48.9385 168.57 50.1287 169.111 51.1567C169.679 52.1576 170.409 52.9285 171.302 53.4695C172.222 54.0105 173.196 54.281 174.223 54.281C175.278 54.281 176.266 54.0241 177.186 53.5101C178.105 52.9691 178.836 52.2117 179.377 51.2378C179.918 50.2369 180.188 49.0467 180.188 47.6671ZM189.997 47.586C189.997 45.3137 190.443 43.2984 191.336 41.5401C192.256 39.7818 193.5 38.4292 195.069 37.4825C196.638 36.5357 198.383 36.0623 200.303 36.0623C201.764 36.0623 203.157 36.3869 204.483 37.0361C205.808 37.6583 206.863 38.4969 207.648 39.5519V28.8803H213.409V58.9067H207.648V55.5795C206.944 56.6886 205.957 57.5812 204.685 58.2575C203.414 58.9338 201.94 59.2719 200.263 59.2719C198.369 59.2719 196.638 58.785 195.069 57.8112C193.5 56.8373 192.256 55.4713 191.336 53.713C190.443 51.9276 189.997 49.8853 189.997 47.586ZM207.688 47.6671C207.688 46.2875 207.418 45.1108 206.877 44.137C206.336 43.1361 205.605 42.3787 204.685 41.8647C203.766 41.3237 202.778 41.0532 201.723 41.0532C200.668 41.0532 199.695 41.3102 198.802 41.8241C197.909 42.3381 197.179 43.0955 196.611 44.0964C196.07 45.0702 195.799 46.2334 195.799 47.586C195.799 48.9385 196.07 50.1287 196.611 51.1567C197.179 52.1576 197.909 52.9285 198.802 53.4695C199.722 54.0105 200.695 54.281 201.723 54.281C202.778 54.281 203.766 54.0241 204.685 53.5101C205.605 52.9691 206.336 52.2117 206.877 51.2378C207.418 50.2369 207.688 49.0467 207.688 47.6671ZM227.56 59.2719C225.72 59.2719 224.07 58.9473 222.609 58.2981C221.149 57.6218 219.985 56.7156 219.12 55.5795C218.281 54.4433 217.821 53.1855 217.74 51.8059H223.462C223.57 52.6715 223.989 53.3884 224.719 53.9564C225.477 54.5245 226.41 54.8085 227.519 54.8085C228.601 54.8085 229.44 54.5921 230.035 54.1593C230.657 53.7265 230.968 53.172 230.968 52.4957C230.968 51.7653 230.589 51.2243 229.832 50.8726C229.102 50.4939 227.925 50.0882 226.302 49.6553C224.625 49.2496 223.245 48.8303 222.163 48.3975C221.108 47.9647 220.188 47.3019 219.404 46.4092C218.646 45.5166 218.268 44.3128 218.268 42.798C218.268 41.5536 218.619 40.4175 219.323 39.3896C220.053 38.3616 221.081 37.5501 222.407 36.955C223.759 36.3599 225.342 36.0623 227.154 36.0623C229.832 36.0623 231.969 36.7386 233.565 38.0911C235.161 39.4166 236.04 41.2155 236.202 43.4878H230.765C230.684 42.5951 230.305 41.8918 229.629 41.3778C228.98 40.8368 228.101 40.5663 226.992 40.5663C225.964 40.5663 225.166 40.7556 224.598 41.1343C224.057 41.513 223.786 42.0405 223.786 42.7168C223.786 43.4742 224.165 44.0558 224.922 44.4616C225.68 44.8403 226.856 45.2325 228.452 45.6383C230.075 46.0441 231.414 46.4633 232.469 46.8962C233.524 47.329 234.431 48.0052 235.188 48.925C235.973 49.8177 236.378 51.0079 236.405 52.4957C236.405 53.7941 236.04 54.9573 235.31 55.9852C234.606 57.0132 233.579 57.8247 232.226 58.4198C230.9 58.9879 229.345 59.2719 227.56 59.2719Z" fill="white"/>
<path d="M59.8571 24.9423C59.8571 24.9423 56.8276 16.3509 52.8352 12.4112C46.9744 6.62786 41.3292 5.10955 33.0977 5.00647C26.2468 4.92067 21.6925 5.64609 16.2071 9.75309C11.9703 12.9252 10.3031 15.7868 8.04639 20.5754C5.15723 26.706 4.94131 30.8857 5.00986 37.6633C5.07472 44.0761 5.25363 48.0292 8.04639 53.8018C10.3006 58.4612 12.0452 61.1687 16.2071 64.2444C21.7181 68.317 26.247 69.0967 33.0977 68.991C39.5925 68.8907 44.0797 68.4404 49.0395 64.2444C53.5969 60.3888 56.4112 56.7328 56.2513 50.7639C56.0908 44.7767 53.2746 40.9661 48.2804 37.6633C44.2162 34.9755 41.0049 34.7039 36.1343 34.8153C31.6953 34.9168 28.1703 34.4289 25.1269 37.6633C23.2854 39.6203 22.2487 41.2412 22.2801 43.9288C22.3108 46.5491 23.2164 48.2118 25.1269 50.0045C27.4882 52.2201 29.861 52.3483 33.0977 52.2829C36.1213 52.2218 38.0801 51.8201 40.4993 50.0045C43.8947 47.4562 44.2601 44.303 45.0541 40.1315C45.7893 36.2683 46.077 33.7424 44.6745 30.0687C43.6477 27.3788 42.7605 25.7743 40.4993 23.993C38.0865 22.0922 36.1678 21.4139 33.0977 21.3349C28.5582 21.218 25.3437 22.7967 22.6597 26.4612" stroke="url(#paint0_radial_159114_911)" stroke-width="8.0557"/>
<path d="M59.8571 24.9423C59.8571 24.9423 56.8276 16.3509 52.8352 12.4112C46.9744 6.62786 41.3292 5.10955 33.0977 5.00647C26.2468 4.92067 21.6925 5.64609 16.2071 9.75309C11.9703 12.9252 10.3031 15.7868 8.04639 20.5754C5.15723 26.706 4.94131 30.8857 5.00986 37.6633C5.07472 44.0761 5.25363 48.0292 8.04639 53.8018C10.3006 58.4612 12.0452 61.1687 16.2071 64.2444C21.7181 68.317 26.247 69.0967 33.0977 68.991C39.5925 68.8907 44.0797 68.4404 49.0395 64.2444C53.5969 60.3888 56.4112 56.7328 56.2513 50.7639C56.0908 44.7767 53.2746 40.9661 48.2804 37.6633C44.2162 34.9755 41.0049 34.7039 36.1343 34.8153C31.6953 34.9168 28.1703 34.4289 25.1269 37.6633C23.2854 39.6203 22.2487 41.2412 22.2801 43.9288C22.3108 46.5491 23.2164 48.2118 25.1269 50.0045C27.4882 52.2201 29.861 52.3483 33.0977 52.2829C36.1213 52.2218 38.0801 51.8201 40.4993 50.0045C43.8947 47.4562 44.2601 44.303 45.0541 40.1315C45.7893 36.2683 46.077 33.7424 44.6745 30.0687C43.6477 27.3788 42.7605 25.7743 40.4993 23.993C38.0865 22.0922 36.1678 21.4139 33.0977 21.3349C28.5582 21.218 25.3437 22.7967 22.6597 26.4612" stroke="url(#paint1_radial_159114_911)" stroke-width="8.0557"/>
<defs>
<radialGradient id="paint0_radial_159114_911" cx="0" cy="0" r="1" gradientUnits="userSpaceOnUse" gradientTransform="translate(51.3543 77.64) rotate(-112.485) scale(85.0583 114.169)">
<stop offset="0.24392" stop-color="#FF1B90"/>
<stop offset="0.436673" stop-color="#F80261"/>
<stop offset="0.688476" stop-color="#ED00C0"/>
<stop offset="0.776787" stop-color="#C500E9"/>
<stop offset="0.893155" stop-color="#7017FF"/>
</radialGradient>
<radialGradient id="paint1_radial_159114_911" cx="0" cy="0" r="1" gradientUnits="userSpaceOnUse" gradientTransform="translate(23.3771 69) rotate(-58.4482) scale(35.7489 36.8303)">
<stop offset="0.09375" stop-color="#FFD000"/>
<stop offset="0.442708" stop-color="#FF6930"/>
<stop offset="0.692708" stop-color="#FE3B36"/>
<stop offset="1" stop-color="#FF6930" stop-opacity="0"/>
</radialGradient>
</defs>
</svg>
