<svg width="107" height="32" viewBox="0 0 107 32" fill="none" xmlns="http://www.w3.org/2000/svg">
<path d="M38.5823 15.098V19.922C38.5823 20.258 38.6603 20.504 38.8163 20.66C38.9843 20.804 39.2603 20.876 39.6443 20.876H40.8143V23H39.2303C37.1063 23 36.0443 21.968 36.0443 19.904V15.098H34.8563V13.028H36.0443V10.562H38.5823V13.028H40.8143V15.098H38.5823ZM48.2428 12.884C48.9988 12.884 49.6708 13.052 50.2588 13.388C50.8468 13.712 51.3028 14.198 51.6268 14.846C51.9628 15.482 52.1308 16.25 52.1308 17.15V23H49.6108V17.492C49.6108 16.7 49.4128 16.094 49.0168 15.674C48.6208 15.242 48.0808 15.026 47.3968 15.026C46.7008 15.026 46.1488 15.242 45.7408 15.674C45.3448 16.094 45.1468 16.7 45.1468 17.492V23H42.6268V9.68H45.1468V14.27C45.4708 13.838 45.9028 13.502 46.4428 13.262C46.9828 13.01 47.5828 12.884 48.2428 12.884ZM57.0472 14.576C57.3712 14.048 57.7912 13.634 58.3072 13.334C58.8352 13.034 59.4352 12.884 60.1072 12.884V15.53H59.4412C58.6492 15.53 58.0492 15.716 57.6412 16.088C57.2452 16.46 57.0472 17.108 57.0472 18.032V23H54.5272V13.028H57.0472V14.576ZM71.0745 17.798C71.0745 18.158 71.0505 18.482 71.0025 18.77H63.7125C63.7725 19.49 64.0245 20.054 64.4685 20.462C64.9125 20.87 65.4585 21.074 66.1065 21.074C67.0425 21.074 67.7085 20.672 68.1045 19.868H70.8225C70.5345 20.828 69.9825 21.62 69.1665 22.244C68.3505 22.856 67.3485 23.162 66.1605 23.162C65.2005 23.162 64.3365 22.952 63.5685 22.532C62.8125 22.1 62.2185 21.494 61.7865 20.714C61.3665 19.934 61.1565 19.034 61.1565 18.014C61.1565 16.982 61.3665 16.076 61.7865 15.296C62.2065 14.516 62.7945 13.916 63.5505 13.496C64.3065 13.076 65.1765 12.866 66.1605 12.866C67.1085 12.866 67.9545 13.07 68.6985 13.478C69.4545 13.886 70.0365 14.468 70.4445 15.224C70.8645 15.968 71.0745 16.826 71.0745 17.798ZM68.4645 17.078C68.4525 16.43 68.2185 15.914 67.7625 15.53C67.3065 15.134 66.7485 14.936 66.0885 14.936C65.4645 14.936 64.9365 15.128 64.5045 15.512C64.0845 15.884 63.8265 16.406 63.7305 17.078H68.4645ZM72.2659 17.978C72.2659 16.97 72.4639 16.076 72.8599 15.296C73.2679 14.516 73.8139 13.916 74.4979 13.496C75.1939 13.076 75.9679 12.866 76.8199 12.866C77.5639 12.866 78.2119 13.016 78.7639 13.316C79.3279 13.616 79.7779 13.994 80.1139 14.45V13.028H82.6519V23H80.1139V21.542C79.7899 22.01 79.3399 22.4 78.7639 22.712C78.1999 23.012 77.5459 23.162 76.8019 23.162C75.9619 23.162 75.1939 22.946 74.4979 22.514C73.8139 22.082 73.2679 21.476 72.8599 20.696C72.4639 19.904 72.2659 18.998 72.2659 17.978ZM80.1139 18.014C80.1139 17.402 79.9939 16.88 79.7539 16.448C79.5139 16.004 79.1899 15.668 78.7819 15.44C78.3739 15.2 77.9359 15.08 77.4679 15.08C76.9999 15.08 76.5679 15.194 76.1719 15.422C75.7759 15.65 75.4519 15.986 75.1999 16.43C74.9599 16.862 74.8399 17.378 74.8399 17.978C74.8399 18.578 74.9599 19.106 75.1999 19.562C75.4519 20.006 75.7759 20.348 76.1719 20.588C76.5799 20.828 77.0119 20.948 77.4679 20.948C77.9359 20.948 78.3739 20.834 78.7819 20.606C79.1899 20.366 79.5139 20.03 79.7539 19.598C79.9939 19.154 80.1139 18.626 80.1139 18.014ZM84.4651 17.978C84.4651 16.97 84.6631 16.076 85.0591 15.296C85.4671 14.516 86.0191 13.916 86.7151 13.496C87.4111 13.076 88.1851 12.866 89.0371 12.866C89.6851 12.866 90.3031 13.01 90.8911 13.298C91.4791 13.574 91.9471 13.946 92.2951 14.414V9.68H94.8511V23H92.2951V21.524C91.9831 22.016 91.5451 22.412 90.9811 22.712C90.4171 23.012 89.7631 23.162 89.0191 23.162C88.1791 23.162 87.4111 22.946 86.7151 22.514C86.0191 22.082 85.4671 21.476 85.0591 20.696C84.6631 19.904 84.4651 18.998 84.4651 17.978ZM92.3131 18.014C92.3131 17.402 92.1931 16.88 91.9531 16.448C91.7131 16.004 91.3891 15.668 90.9811 15.44C90.5731 15.2 90.1351 15.08 89.6671 15.08C89.1991 15.08 88.7671 15.194 88.3711 15.422C87.9751 15.65 87.6511 15.986 87.3991 16.43C87.1591 16.862 87.0391 17.378 87.0391 17.978C87.0391 18.578 87.1591 19.106 87.3991 19.562C87.6511 20.006 87.9751 20.348 88.3711 20.588C88.7791 20.828 89.2111 20.948 89.6671 20.948C90.1351 20.948 90.5731 20.834 90.9811 20.606C91.3891 20.366 91.7131 20.03 91.9531 19.598C92.1931 19.154 92.3131 18.626 92.3131 18.014ZM101.128 23.162C100.312 23.162 99.5803 23.018 98.9323 22.73C98.2843 22.43 97.7683 22.028 97.3843 21.524C97.0123 21.02 96.8083 20.462 96.7723 19.85H99.3103C99.3583 20.234 99.5443 20.552 99.8683 20.804C100.204 21.056 100.618 21.182 101.11 21.182C101.59 21.182 101.962 21.086 102.226 20.894C102.502 20.702 102.64 20.456 102.64 20.156C102.64 19.832 102.472 19.592 102.136 19.436C101.812 19.268 101.29 19.088 100.57 18.896C99.8263 18.716 99.2143 18.53 98.7343 18.338C98.2663 18.146 97.8583 17.852 97.5103 17.456C97.1743 17.06 97.0063 16.526 97.0063 15.854C97.0063 15.302 97.1623 14.798 97.4743 14.342C97.7983 13.886 98.2543 13.526 98.8423 13.262C99.4423 12.998 100.144 12.866 100.948 12.866C102.136 12.866 103.084 13.166 103.792 13.766C104.5 14.354 104.89 15.152 104.962 16.16H102.55C102.514 15.764 102.346 15.452 102.046 15.224C101.758 14.984 101.368 14.864 100.876 14.864C100.42 14.864 100.066 14.948 99.8143 15.116C99.5743 15.284 99.4543 15.518 99.4543 15.818C99.4543 16.154 99.6223 16.412 99.9583 16.592C100.294 16.76 100.816 16.934 101.524 17.114C102.244 17.294 102.838 17.48 103.306 17.672C103.774 17.864 104.176 18.164 104.512 18.572C104.86 18.968 105.04 19.496 105.052 20.156C105.052 20.732 104.89 21.248 104.566 21.704C104.254 22.16 103.798 22.52 103.198 22.784C102.61 23.036 101.92 23.162 101.128 23.162Z" fill="white"/>
<path d="M26 10.7248C26 10.7248 24.6746 6.96602 22.9279 5.2424C20.3638 2.71219 17.894 2.04793 14.2928 2.00283C11.2955 1.96529 9.30298 2.28266 6.90309 4.07948C5.04951 5.46726 4.3201 6.71923 3.33279 8.81424C2.06879 11.4964 1.97432 13.325 2.00431 16.2902C2.03269 19.0958 2.11096 20.8253 3.33279 23.3508C4.31902 25.3893 5.08225 26.5738 6.90309 27.9194C9.31415 29.7012 11.2956 30.0423 14.2928 29.9961C17.1342 29.9522 19.0973 29.7552 21.2673 27.9194C23.2611 26.2326 24.4924 24.6331 24.4224 22.0217C24.3522 19.4023 23.1201 17.7352 20.9352 16.2902C19.1571 15.1143 17.7521 14.9955 15.6212 15.0442C13.6792 15.0886 12.137 14.8751 10.8055 16.2902C9.99984 17.1464 9.54629 17.8555 9.56005 19.0314C9.57347 20.1777 9.96966 20.9052 10.8055 21.6895C11.8386 22.6588 12.8767 22.7149 14.2928 22.6863C15.6156 22.6595 16.4725 22.4838 17.5309 21.6895C19.0164 20.5746 19.1763 19.1951 19.5237 17.37C19.8453 15.6799 19.9712 14.5748 19.3576 12.9675C18.9084 11.7907 18.5202 11.0888 17.5309 10.3094C16.4753 9.47783 15.6359 9.18108 14.2928 9.1465C12.3067 9.09538 10.9004 9.78607 9.72611 11.3893" stroke="white" stroke-width="3.52437"/>
</svg>
