<svg width="43" height="28" viewBox="0 0 43 28" fill="none" xmlns="http://www.w3.org/2000/svg">
<path d="M21.576 5.89069C18.2261 1.62538 15.4248 0 12.0721 0C5.23699 0 0 8.89522 0 18.3103C0 24.2021 2.85028 27.918 7.62453 27.918C11.0607 27.918 13.532 26.2982 17.9251 18.6185C17.9251 18.6185 19.7566 15.3845 21.0165 13.1566C21.4579 13.8694 21.9219 14.6363 22.4113 15.4607L24.4716 18.9264C28.4846 25.6421 30.7208 27.918 34.7722 27.918C39.4234 27.918 42.0116 24.1513 42.0116 18.1372C42.0116 8.27907 36.6567 0 30.1513 0C26.7065 0 24.0138 2.5947 21.576 5.89069ZM28.0183 15.8362L25.5551 11.7281C24.8887 10.644 24.25 9.64761 23.6335 8.73441C25.8533 5.30776 27.6847 3.60058 29.8626 3.60058C34.3872 3.60058 38.0071 10.2624 38.0071 18.4451C38.0071 21.5641 36.9853 23.374 34.8686 23.374C32.8398 23.374 31.8704 22.0342 28.0183 15.8362ZM4.54379 18.3873C4.54379 11.5522 7.95173 4.56319 12.0144 4.56319C14.2143 4.56319 16.0527 5.83374 18.8688 9.86509C16.1948 13.9665 14.575 16.5389 14.575 16.5389C11.0132 22.1225 9.78092 23.374 7.79791 23.374C5.75682 23.374 4.54379 21.5823 4.54379 18.3873Z" fill="white"/>
</svg>
