<svg width="28" height="32" viewBox="0 0 28 32" fill="none" xmlns="http://www.w3.org/2000/svg">
<path d="M26 10.7248C26 10.7248 24.6746 6.96602 22.9279 5.2424C20.3638 2.71219 17.894 2.04793 14.2928 2.00283C11.2955 1.96529 9.30298 2.28266 6.90309 4.07948C5.04951 5.46726 4.3201 6.71923 3.33279 8.81424C2.06879 11.4964 1.97432 13.325 2.00431 16.2902C2.03269 19.0958 2.11096 20.8253 3.33279 23.3508C4.31902 25.3893 5.08225 26.5738 6.90309 27.9194C9.31415 29.7012 11.2956 30.0423 14.2928 29.9961C17.1342 29.9522 19.0973 29.7552 21.2673 27.9194C23.2611 26.2326 24.4924 24.6331 24.4224 22.0217C24.3522 19.4023 23.1201 17.7352 20.9352 16.2902C19.1571 15.1143 17.7521 14.9955 15.6212 15.0442C13.6792 15.0886 12.137 14.8751 10.8055 16.2902C9.99984 17.1464 9.54629 17.8555 9.56005 19.0314C9.57347 20.1777 9.96966 20.9052 10.8055 21.6895C11.8386 22.6588 12.8767 22.7149 14.2928 22.6863C15.6156 22.6595 16.4725 22.4838 17.5309 21.6895C19.0164 20.5746 19.1763 19.1951 19.5237 17.37C19.8453 15.6799 19.9712 14.5748 19.3576 12.9675C18.9084 11.7907 18.5202 11.0888 17.5309 10.3094C16.4753 9.47783 15.6359 9.18108 14.2928 9.1465C12.3067 9.09538 10.9004 9.78607 9.72611 11.3893" stroke="white" stroke-width="2.5"/>
</svg>
