<svg width="36" height="37" viewBox="0 0 36 37" fill="none" xmlns="http://www.w3.org/2000/svg">
<path fill-rule="evenodd" clip-rule="evenodd" d="M18.9696 0.0221506C23.4272 0.241227 27.5809 2.07942 30.7534 5.25405C34.1374 8.64018 36.0001 13.1412 35.9983 17.9279C35.9942 27.8057 27.9529 35.8427 18.0745 35.8427C14.3598 35.8427 11.4078 34.7013 9.50172 33.6622L0 36.1534L2.54288 26.8699C0.974349 24.1531 0.148996 21.0713 0.15029 17.9137C0.154256 8.03621 8.19488 0 18.0743 0L18.9696 0.0221506ZM9.9419 30.4189L10.486 30.7416C12.7733 32.0983 15.3952 32.8161 18.0684 32.8171H18.0744C26.2856 32.8171 32.9686 26.1373 32.9719 17.9269C32.9735 13.9483 31.4254 10.2072 28.6127 7.39268C25.7999 4.57804 22.0595 3.02709 18.0804 3.02579C9.86292 3.02579 3.17983 9.70496 3.17655 17.9147C3.17543 20.7284 3.96301 23.4685 5.45429 25.8391L5.8085 26.4025L4.30352 31.8972L9.9419 30.4189ZM27.1043 22.188C26.9924 22.0012 26.6939 21.8892 26.246 21.6652C25.7982 21.4411 23.5963 20.3582 23.1858 20.2087C22.7753 20.0595 22.4767 19.9849 22.1782 20.4328C21.8797 20.8809 21.0214 21.8892 20.76 22.188C20.4989 22.4867 20.2376 22.5241 19.7898 22.3001C19.342 22.0761 17.8989 21.6033 16.1883 20.0783C14.8569 18.8913 13.958 17.4255 13.6968 16.9773C13.4356 16.5293 13.6689 16.2869 13.8931 16.0638C14.0946 15.8632 14.341 15.5409 14.565 15.2795C14.7889 15.0182 14.8635 14.8314 15.0128 14.5328C15.1621 14.234 15.0874 13.9727 14.9755 13.7486C14.8635 13.5244 13.9679 11.3211 13.5947 10.4248C13.2311 9.55199 12.8618 9.67015 12.587 9.65636C12.326 9.64343 12.0272 9.64059 11.7287 9.64059C11.4301 9.64059 10.9449 9.75254 10.5344 10.2008C10.1238 10.6488 8.96686 11.7319 8.96686 13.9351C8.96686 16.1385 10.5717 18.2669 10.7956 18.5657C11.0195 18.8646 13.9536 23.3857 18.4462 25.3248C19.5148 25.7861 20.349 26.0614 20.9994 26.2678C22.0723 26.6084 23.0485 26.5604 23.8203 26.4451C24.6807 26.3166 26.47 25.3622 26.8432 24.3167C27.2163 23.2709 27.2163 22.3747 27.1043 22.188Z" fill="white"/>
</svg>
